<svg xmlns="http://www.w3.org/2000/svg" id="_&#x421;&#x43B;&#x43E;&#x439;_1" data-name="&#x421;&#x43B;&#x43E;&#x439; 1" viewBox="0 0 411.63 411.63"><defs><style>      .cls-1 {        fill: #e8e224;      }      .cls-2 {        fill: #3c3d37;      }    </style></defs><g><polygon class="cls-2" points="170.96 274.46 170.96 263.29 124.49 263.29 130.58 274.46 170.96 274.46"></polygon><polygon class="cls-2" points="143.41 292.42 169.6 292.42 169.6 281.3 130.58 281.3 130.58 302.1 135.3 312.35 171.11 312.35 171.11 301.18 143.41 301.18 143.41 292.42"></polygon><polygon class="cls-2" points="217.56 296.42 216.73 296.42 196.28 263.29 178.09 263.29 178.09 312.35 190.92 312.35 190.92 279.22 191.75 279.22 212.28 312.35 230.39 312.35 230.39 263.29 217.56 263.29 217.56 296.42"></polygon><polygon class="cls-2" points="280.29 263.29 238.04 263.29 234.26 274.46 250.86 274.46 250.86 312.35 263.69 312.35 263.69 274.46 280.29 274.46 280.29 263.29"></polygon><path class="cls-2" d="m307.38,261.86c-15.62,0-27.09,9.96-27.09,25.66s11.47,25.74,27.09,25.74,27.09-10.04,27.09-25.74-11.55-25.66-27.09-25.66Zm0,39.47c-8.45,0-14.03-5.13-14.03-13.81s5.58-13.73,14.03-13.73,14.04,5.13,14.04,13.73-5.58,13.81-14.04,13.81Z"></path><path class="cls-2" d="m368.35,293.25v-.45c6.04-2.19,10.04-7.32,10.04-14.19,0-9.43-7.48-15.32-17.59-15.32h-29.9l8.02,12,6.78-.07h15.09c2.87,0,4.76,1.51,4.76,4.08s-1.89,4.15-4.76,4.15h-21.23l.18,11.93h14.72l11.78,16.98h15.46l-13.35-19.09Z"></path><polygon class="cls-2" points="62.2 312.46 79.79 278.8 84.75 290.26 97.47 290.32 102.34 278.97 117.52 312.46 131.27 312.46 108.83 262.55 95.79 262.55 91.1 273.38 86.41 262.55 73.41 262.55 47.77 312.46 62.2 312.46"></polygon><path class="cls-1" d="m184.11,198.23h15.23l-12.47,27.86,16.76-11.61h42.37c27.56,0,49.9-22.34,49.9-49.9v-5.51c0-29.54-23.94-52.94-53.49-52.94h-.84l7.2-16.08h-72.09c-25.76,1.97-46.06,23.47-46.06,49.74v5.51c0,29.54,23.95,52.94,53.49,52.94Z"></path></g><path class="cls-2" d="m276.2,144.51c-2.31-4.67-5.42-8.47-9.34-11.4-3.92-2.92-8.51-5.04-13.77-6.34-5.26-1.31-10.81-1.96-16.65-1.96h-21.72v14.77h-16.09v25.78h-7.08c-3.37,0-6.58-.43-9.64-1.29-3.06-.86-5.73-2.15-7.99-3.87-2.27-1.72-4.08-3.9-5.42-6.55-1.34-2.65-2.01-5.76-2.01-9.33v-1.36c0-3.57.67-6.69,2.01-9.33,1.34-2.65,3.15-4.83,5.42-6.55,2.27-1.72,4.93-3.01,7.99-3.87,3.06-.86,6.27-1.29,9.64-1.29h23.17l6.53-14.85h-28.27c-5.84,0-11.4.65-16.66,1.96-5.26,1.3-9.85,3.42-13.77,6.34-3.92,2.92-7.03,6.72-9.33,11.4-2.28,4.64-3.43,10.27-3.45,16.87.02,6.6,1.17,12.23,3.45,16.87,2.31,4.67,5.42,8.47,9.33,11.39,3.92,2.92,8.51,5.04,13.77,6.34,5.26,1.31,10.81,1.96,16.66,1.96h15.32l6.4-14.77h0s16.09,0,16.09,0v-25.78h7.08c3.36,0,6.58.43,9.64,1.29,3.06.86,5.72,2.15,7.99,3.87,2.26,1.72,4.07,3.9,5.41,6.55,1.34,2.65,2.01,5.76,2.01,9.33v1.37c0,3.57-.67,6.68-2.01,9.33-1.34,2.65-3.15,4.83-5.41,6.55-2.27,1.72-4.94,3.01-7.99,3.87-3.06.86-6.28,1.29-9.64,1.29h-16.58l-6.53,14.85h21.67c5.84,0,11.39-.65,16.65-1.96,5.26-1.31,9.85-3.42,13.77-6.34,3.92-2.92,7.03-6.72,9.34-11.4,2.28-4.64,3.43-10.27,3.45-16.87-.02-6.61-1.16-12.23-3.45-16.87Z"></path></svg>